<?xml version="1.0" encoding="UTF-8" standalone="no"?>
<svg width="175px" height="175px" viewBox="0 0 175 175" version="1.1" xmlns="http://www.w3.org/2000/svg" xmlns:xlink="http://www.w3.org/1999/xlink" xmlns:sketch="http://www.bohemiancoding.com/sketch/ns">
    <!-- Generator: Sketch Beta 3.4.1 (15680) - http://www.bohemiancoding.com/sketch -->
    <title>Group</title>
    <desc>Created with Sketch Beta.</desc>
    <defs></defs>
    <g id="Page-1" stroke="none" stroke-width="1" fill="none" fill-rule="evenodd" sketch:type="MSPage">
        <g id="experts-+-coding-+-Group" sketch:type="MSLayerGroup">
            <g id="Group" sketch:type="MSShapeGroup">
                <path d="M66.3716814,3.99193132 C66.3716814,1.78724853 68.1695594,7.21193524e-14 70.3804055,7.01557266e-14 L121.360007,2.48767443e-14 C123.573965,2.29103553e-14 125.368732,1.79000654 125.368732,4.00376249 L125.368732,44.6688039 C125.368732,46.8800208 127.158738,48.6725664 129.372494,48.6725664 L170.037535,48.6725664 C172.248752,48.6725664 174.041298,50.4704443 174.041298,52.6812905 L174.041298,103.660892 C174.041298,105.87485 172.251207,107.669617 170.049367,107.669617 L70.3636127,107.669617 C68.1589299,107.669617 66.3716814,105.879526 66.3716814,103.677685 L66.3716814,3.99193132 Z" id="Path-148" fill="#0288D1" transform="translate(120.206490, 53.834808) scale(-1, -1) translate(-120.206490, -53.834808) "></path>
                <path d="M115.044248,119.052972 C115.044248,116.839015 116.842126,115.044248 119.052972,115.044248 L170.032574,115.044248 C172.246531,115.044248 174.041298,116.842126 174.041298,119.052972 L174.041298,170.032574 C174.041298,172.246531 172.24342,174.041298 170.032574,174.041298 L119.052972,174.041298 C116.839015,174.041298 115.044248,172.24342 115.044248,170.032574 L115.044248,119.052972 Z" id="Rectangle-90-Copy-2" fill="#45C0F6" transform="translate(144.542773, 144.542773) scale(-1, -1) translate(-144.542773, -144.542773) "></path>
                <path d="M66.3716814,70.3690251 C66.3716814,68.1613532 68.1594575,66.3716814 70.3690251,66.3716814 L103.672273,66.3716814 C105.879945,66.3716814 107.669617,68.1594575 107.669617,70.3690251 L107.669617,103.672273 C107.669617,105.879945 105.88184,107.669617 103.672273,107.669617 L70.3690251,107.669617 C68.1613532,107.669617 66.3716814,105.88184 66.3716814,103.672273 L66.3716814,70.3690251 Z" id="Rectangle-90-Copy" fill="#FCD115" transform="translate(87.020649, 87.020649) scale(-1, -1) translate(-87.020649, -87.020649) "></path>
                <path d="M4.26325641e-14,5.89039239 C4.10686723e-14,2.6372185 2.64959404,-1.57486219e-14 5.89974267,-1.7480649e-14 L53.0973075,-4.26325641e-14 C56.3556454,-4.43689554e-14 58.9970501,2.64664254 58.9970501,5.90306444 L58.9970501,109.141183 C58.9970501,112.401356 61.6484639,115.044248 64.8923307,115.044248 L101.774336,115.044248 C105.03021,115.044248 107.669617,117.693842 107.669617,120.94399 L107.669617,168.141555 C107.669617,171.399893 105.034843,174.041298 101.765971,174.041298 L5.90364551,174.041298 C2.64315213,174.041298 1.22203281e-13,171.411673 1.20635739e-13,168.150906 L4.26325641e-14,5.89039239 L4.26325641e-14,5.89039239 Z" id="Path-148" fill="#0C5E96"></path>
            </g>
        </g>
    </g>
</svg>